<?xml version="1.0" encoding="UTF-8" standalone="no"?>
<!DOCTYPE svg PUBLIC "-//W3C//DTD SVG 1.1//EN"
 "http://www.w3.org/Graphics/SVG/1.1/DTD/svg11.dtd">
<!-- Generated by graphviz version 2.40.1 (20161225.0304)
 -->
<!-- Title: Tree Pages: 1 -->
<svg width="706pt" height="433pt"
 viewBox="0.00 0.00 706.00 433.00" xmlns="http://www.w3.org/2000/svg" xmlns:xlink="http://www.w3.org/1999/xlink">
<g id="graph0" class="graph" transform="scale(1 1) rotate(0) translate(4 429)">
<title>Tree</title>
<polygon fill="#ffffff" stroke="transparent" points="-4,4 -4,-429 702,-429 702,4 -4,4"/>
<!-- 0 -->
<g id="node1" class="node">
<title>0</title>
<path fill="#f1f8fd" stroke="#000000" d="M410,-425C410,-425 302,-425 302,-425 296,-425 290,-419 290,-413 290,-413 290,-354 290,-354 290,-348 296,-342 302,-342 302,-342 410,-342 410,-342 416,-342 422,-348 422,-354 422,-354 422,-413 422,-413 422,-419 416,-425 410,-425"/>
<text text-anchor="start" x="317.5" y="-409.8" font-family="Helvetica,sans-Serif" font-size="14.00" fill="#000000">odor_n ≤ 0.5</text>
<text text-anchor="start" x="328" y="-394.8" font-family="Helvetica,sans-Serif" font-size="14.00" fill="#000000">gini = 0.5</text>
<text text-anchor="start" x="299" y="-379.8" font-family="Helvetica,sans-Serif" font-size="14.00" fill="#000000">samples = 100.0%</text>
<text text-anchor="start" x="298" y="-364.8" font-family="Helvetica,sans-Serif" font-size="14.00" fill="#000000">value = [0.48, 0.52]</text>
<text text-anchor="start" x="313.5" y="-349.8" font-family="Helvetica,sans-Serif" font-size="14.00" fill="#000000">class = Edible</text>
</g>
<!-- 1 -->
<g id="node2" class="node">
<title>1</title>
<path fill="#ea9a61" stroke="#000000" d="M317,-306C317,-306 209,-306 209,-306 203,-306 197,-300 197,-294 197,-294 197,-235 197,-235 197,-229 203,-223 209,-223 209,-223 317,-223 317,-223 323,-223 329,-229 329,-235 329,-235 329,-294 329,-294 329,-300 323,-306 317,-306"/>
<text text-anchor="start" x="218" y="-290.8" font-family="Helvetica,sans-Serif" font-size="14.00" fill="#000000">bruises_f ≤ 0.5</text>
<text text-anchor="start" x="231" y="-275.8" font-family="Helvetica,sans-Serif" font-size="14.00" fill="#000000">gini = 0.28</text>
<text text-anchor="start" x="210" y="-260.8" font-family="Helvetica,sans-Serif" font-size="14.00" fill="#000000">samples = 56.1%</text>
<text text-anchor="start" x="205" y="-245.8" font-family="Helvetica,sans-Serif" font-size="14.00" fill="#000000">value = [0.83, 0.17]</text>
<text text-anchor="start" x="208" y="-230.8" font-family="Helvetica,sans-Serif" font-size="14.00" fill="#000000">class = Poisonous</text>
</g>
<!-- 0&#45;&gt;1 -->
<g id="edge1" class="edge">
<title>0&#45;&gt;1</title>
<path fill="none" stroke="#000000" d="M323.4731,-341.8796C316.5049,-332.9633 309.0753,-323.4565 301.8944,-314.268"/>
<polygon fill="#000000" stroke="#000000" points="304.5812,-312.0221 295.6657,-306.2981 299.0657,-316.3326 304.5812,-312.0221"/>
<text text-anchor="middle" x="293.2311" y="-322.4493" font-family="Helvetica,sans-Serif" font-size="14.00" fill="#000000">True</text>
</g>
<!-- 6 -->
<g id="node7" class="node">
<title>6</title>
<path fill="#40a0e6" stroke="#000000" d="M517.5,-306C517.5,-306 380.5,-306 380.5,-306 374.5,-306 368.5,-300 368.5,-294 368.5,-294 368.5,-235 368.5,-235 368.5,-229 374.5,-223 380.5,-223 380.5,-223 517.5,-223 517.5,-223 523.5,-223 529.5,-229 529.5,-235 529.5,-235 529.5,-294 529.5,-294 529.5,-300 523.5,-306 517.5,-306"/>
<text text-anchor="start" x="376.5" y="-290.8" font-family="Helvetica,sans-Serif" font-size="14.00" fill="#000000">spore&#45;print&#45;color_r ≤ 0.5</text>
<text text-anchor="start" x="417" y="-275.8" font-family="Helvetica,sans-Serif" font-size="14.00" fill="#000000">gini = 0.06</text>
<text text-anchor="start" x="396" y="-260.8" font-family="Helvetica,sans-Serif" font-size="14.00" fill="#000000">samples = 43.9%</text>
<text text-anchor="start" x="391" y="-245.8" font-family="Helvetica,sans-Serif" font-size="14.00" fill="#000000">value = [0.03, 0.97]</text>
<text text-anchor="start" x="406.5" y="-230.8" font-family="Helvetica,sans-Serif" font-size="14.00" fill="#000000">class = Edible</text>
</g>
<!-- 0&#45;&gt;6 -->
<g id="edge6" class="edge">
<title>0&#45;&gt;6</title>
<path fill="none" stroke="#000000" d="M388.5269,-341.8796C395.4951,-332.9633 402.9247,-323.4565 410.1056,-314.268"/>
<polygon fill="#000000" stroke="#000000" points="412.9343,-316.3326 416.3343,-306.2981 407.4188,-312.0221 412.9343,-316.3326"/>
<text text-anchor="middle" x="418.7689" y="-322.4493" font-family="Helvetica,sans-Serif" font-size="14.00" fill="#000000">False</text>
</g>
<!-- 2 -->
<g id="node3" class="node">
<title>2</title>
<path fill="#c1e1f7" stroke="#000000" d="M170,-187C170,-187 62,-187 62,-187 56,-187 50,-181 50,-175 50,-175 50,-116 50,-116 50,-110 56,-104 62,-104 62,-104 170,-104 170,-104 176,-104 182,-110 182,-116 182,-116 182,-175 182,-175 182,-181 176,-187 170,-187"/>
<text text-anchor="start" x="79.5" y="-171.8" font-family="Helvetica,sans-Serif" font-size="14.00" fill="#000000">odor_f ≤ 0.5</text>
<text text-anchor="start" x="84" y="-156.8" font-family="Helvetica,sans-Serif" font-size="14.00" fill="#000000">gini = 0.48</text>
<text text-anchor="start" x="63" y="-141.8" font-family="Helvetica,sans-Serif" font-size="14.00" fill="#000000">samples = 16.0%</text>
<text text-anchor="start" x="58" y="-126.8" font-family="Helvetica,sans-Serif" font-size="14.00" fill="#000000">value = [0.41, 0.59]</text>
<text text-anchor="start" x="73.5" y="-111.8" font-family="Helvetica,sans-Serif" font-size="14.00" fill="#000000">class = Edible</text>
</g>
<!-- 1&#45;&gt;2 -->
<g id="edge2" class="edge">
<title>1&#45;&gt;2</title>
<path fill="none" stroke="#000000" d="M211.5865,-222.8796C199.9048,-213.4229 187.4025,-203.302 175.419,-193.6011"/>
<polygon fill="#000000" stroke="#000000" points="177.6076,-190.8697 167.6329,-187.2981 173.2032,-196.3105 177.6076,-190.8697"/>
</g>
<!-- 5 -->
<g id="node6" class="node">
<title>5</title>
<path fill="#e58139" stroke="#000000" d="M314,-179.5C314,-179.5 212,-179.5 212,-179.5 206,-179.5 200,-173.5 200,-167.5 200,-167.5 200,-123.5 200,-123.5 200,-117.5 206,-111.5 212,-111.5 212,-111.5 314,-111.5 314,-111.5 320,-111.5 326,-117.5 326,-123.5 326,-123.5 326,-167.5 326,-167.5 326,-173.5 320,-179.5 314,-179.5"/>
<text text-anchor="start" x="235" y="-164.3" font-family="Helvetica,sans-Serif" font-size="14.00" fill="#000000">gini = 0.0</text>
<text text-anchor="start" x="210" y="-149.3" font-family="Helvetica,sans-Serif" font-size="14.00" fill="#000000">samples = 40.2%</text>
<text text-anchor="start" x="212.5" y="-134.3" font-family="Helvetica,sans-Serif" font-size="14.00" fill="#000000">value = [1.0, 0.0]</text>
<text text-anchor="start" x="208" y="-119.3" font-family="Helvetica,sans-Serif" font-size="14.00" fill="#000000">class = Poisonous</text>
</g>
<!-- 1&#45;&gt;5 -->
<g id="edge5" class="edge">
<title>1&#45;&gt;5</title>
<path fill="none" stroke="#000000" d="M263,-222.8796C263,-212.2134 263,-200.7021 263,-189.9015"/>
<polygon fill="#000000" stroke="#000000" points="266.5001,-189.8149 263,-179.8149 259.5001,-189.815 266.5001,-189.8149"/>
</g>
<!-- 3 -->
<g id="node4" class="node">
<title>3</title>
<path fill="#77bced" stroke="#000000" d="M120,-68C120,-68 12,-68 12,-68 6,-68 0,-62 0,-56 0,-56 0,-12 0,-12 0,-6 6,0 12,0 12,0 120,0 120,0 126,0 132,-6 132,-12 132,-12 132,-56 132,-56 132,-62 126,-68 120,-68"/>
<text text-anchor="start" x="34" y="-52.8" font-family="Helvetica,sans-Serif" font-size="14.00" fill="#000000">gini = 0.36</text>
<text text-anchor="start" x="13" y="-37.8" font-family="Helvetica,sans-Serif" font-size="14.00" fill="#000000">samples = 12.4%</text>
<text text-anchor="start" x="8" y="-22.8" font-family="Helvetica,sans-Serif" font-size="14.00" fill="#000000">value = [0.24, 0.76]</text>
<text text-anchor="start" x="23.5" y="-7.8" font-family="Helvetica,sans-Serif" font-size="14.00" fill="#000000">class = Edible</text>
</g>
<!-- 2&#45;&gt;3 -->
<g id="edge3" class="edge">
<title>2&#45;&gt;3</title>
<path fill="none" stroke="#000000" d="M97.3818,-103.9815C93.5078,-95.3423 89.4145,-86.2144 85.5094,-77.5059"/>
<polygon fill="#000000" stroke="#000000" points="88.6503,-75.9561 81.3649,-68.2637 82.2631,-78.8204 88.6503,-75.9561"/>
</g>
<!-- 4 -->
<g id="node5" class="node">
<title>4</title>
<path fill="#e58139" stroke="#000000" d="M264,-68C264,-68 162,-68 162,-68 156,-68 150,-62 150,-56 150,-56 150,-12 150,-12 150,-6 156,0 162,0 162,0 264,0 264,0 270,0 276,-6 276,-12 276,-12 276,-56 276,-56 276,-62 270,-68 264,-68"/>
<text text-anchor="start" x="185" y="-52.8" font-family="Helvetica,sans-Serif" font-size="14.00" fill="#000000">gini = 0.0</text>
<text text-anchor="start" x="163.5" y="-37.8" font-family="Helvetica,sans-Serif" font-size="14.00" fill="#000000">samples = 3.6%</text>
<text text-anchor="start" x="162.5" y="-22.8" font-family="Helvetica,sans-Serif" font-size="14.00" fill="#000000">value = [1.0, 0.0]</text>
<text text-anchor="start" x="158" y="-7.8" font-family="Helvetica,sans-Serif" font-size="14.00" fill="#000000">class = Poisonous</text>
</g>
<!-- 2&#45;&gt;4 -->
<g id="edge4" class="edge">
<title>2&#45;&gt;4</title>
<path fill="none" stroke="#000000" d="M152.1192,-103.9815C160.1147,-94.7908 168.5913,-85.0472 176.5979,-75.8436"/>
<polygon fill="#000000" stroke="#000000" points="179.2693,-78.1055 183.1921,-68.2637 173.988,-73.5111 179.2693,-78.1055"/>
</g>
<!-- 7 -->
<g id="node8" class="node">
<title>7</title>
<path fill="#3c9ee5" stroke="#000000" d="M541.5,-187C541.5,-187 356.5,-187 356.5,-187 350.5,-187 344.5,-181 344.5,-175 344.5,-175 344.5,-116 344.5,-116 344.5,-110 350.5,-104 356.5,-104 356.5,-104 541.5,-104 541.5,-104 547.5,-104 553.5,-110 553.5,-116 553.5,-116 553.5,-175 553.5,-175 553.5,-181 547.5,-187 541.5,-187"/>
<text text-anchor="start" x="352.5" y="-171.8" font-family="Helvetica,sans-Serif" font-size="14.00" fill="#000000">stalk&#45;surface&#45;below&#45;ring_y ≤ 0.5</text>
<text text-anchor="start" x="417" y="-156.8" font-family="Helvetica,sans-Serif" font-size="14.00" fill="#000000">gini = 0.03</text>
<text text-anchor="start" x="396" y="-141.8" font-family="Helvetica,sans-Serif" font-size="14.00" fill="#000000">samples = 43.0%</text>
<text text-anchor="start" x="391" y="-126.8" font-family="Helvetica,sans-Serif" font-size="14.00" fill="#000000">value = [0.01, 0.99]</text>
<text text-anchor="start" x="406.5" y="-111.8" font-family="Helvetica,sans-Serif" font-size="14.00" fill="#000000">class = Edible</text>
</g>
<!-- 6&#45;&gt;7 -->
<g id="edge7" class="edge">
<title>6&#45;&gt;7</title>
<path fill="none" stroke="#000000" d="M449,-222.8796C449,-214.6838 449,-205.9891 449,-197.5013"/>
<polygon fill="#000000" stroke="#000000" points="452.5001,-197.298 449,-187.2981 445.5001,-197.2981 452.5001,-197.298"/>
</g>
<!-- 10 -->
<g id="node11" class="node">
<title>10</title>
<path fill="#e58139" stroke="#000000" d="M686,-179.5C686,-179.5 584,-179.5 584,-179.5 578,-179.5 572,-173.5 572,-167.5 572,-167.5 572,-123.5 572,-123.5 572,-117.5 578,-111.5 584,-111.5 584,-111.5 686,-111.5 686,-111.5 692,-111.5 698,-117.5 698,-123.5 698,-123.5 698,-167.5 698,-167.5 698,-173.5 692,-179.5 686,-179.5"/>
<text text-anchor="start" x="607" y="-164.3" font-family="Helvetica,sans-Serif" font-size="14.00" fill="#000000">gini = 0.0</text>
<text text-anchor="start" x="585.5" y="-149.3" font-family="Helvetica,sans-Serif" font-size="14.00" fill="#000000">samples = 0.9%</text>
<text text-anchor="start" x="584.5" y="-134.3" font-family="Helvetica,sans-Serif" font-size="14.00" fill="#000000">value = [1.0, 0.0]</text>
<text text-anchor="start" x="580" y="-119.3" font-family="Helvetica,sans-Serif" font-size="14.00" fill="#000000">class = Poisonous</text>
</g>
<!-- 6&#45;&gt;10 -->
<g id="edge10" class="edge">
<title>6&#45;&gt;10</title>
<path fill="none" stroke="#000000" d="M514.0538,-222.8796C533.2224,-210.6158 554.1371,-197.2348 573.1018,-185.1015"/>
<polygon fill="#000000" stroke="#000000" points="575.1275,-187.9606 581.6648,-179.623 571.355,-182.0641 575.1275,-187.9606"/>
</g>
<!-- 8 -->
<g id="node9" class="node">
<title>8</title>
<path fill="#399de5" stroke="#000000" d="M451,-68C451,-68 353,-68 353,-68 347,-68 341,-62 341,-56 341,-56 341,-12 341,-12 341,-6 347,0 353,0 353,0 451,0 451,0 457,0 463,-6 463,-12 463,-12 463,-56 463,-56 463,-62 457,-68 451,-68"/>
<text text-anchor="start" x="374" y="-52.8" font-family="Helvetica,sans-Serif" font-size="14.00" fill="#000000">gini = 0.0</text>
<text text-anchor="start" x="349" y="-37.8" font-family="Helvetica,sans-Serif" font-size="14.00" fill="#000000">samples = 42.3%</text>
<text text-anchor="start" x="351.5" y="-22.8" font-family="Helvetica,sans-Serif" font-size="14.00" fill="#000000">value = [0.0, 1.0]</text>
<text text-anchor="start" x="359.5" y="-7.8" font-family="Helvetica,sans-Serif" font-size="14.00" fill="#000000">class = Edible</text>
</g>
<!-- 7&#45;&gt;8 -->
<g id="edge8" class="edge">
<title>7&#45;&gt;8</title>
<path fill="none" stroke="#000000" d="M431.4989,-103.9815C427.8573,-95.3423 424.0097,-86.2144 420.3388,-77.5059"/>
<polygon fill="#000000" stroke="#000000" points="423.5525,-76.119 416.443,-68.2637 417.1021,-78.838 423.5525,-76.119"/>
</g>
<!-- 9 -->
<g id="node10" class="node">
<title>9</title>
<path fill="#f0b48a" stroke="#000000" d="M601,-68C601,-68 493,-68 493,-68 487,-68 481,-62 481,-56 481,-56 481,-12 481,-12 481,-6 487,0 493,0 493,0 601,0 601,0 607,0 613,-6 613,-12 613,-12 613,-56 613,-56 613,-62 607,-68 601,-68"/>
<text text-anchor="start" x="515" y="-52.8" font-family="Helvetica,sans-Serif" font-size="14.00" fill="#000000">gini = 0.41</text>
<text text-anchor="start" x="497.5" y="-37.8" font-family="Helvetica,sans-Serif" font-size="14.00" fill="#000000">samples = 0.7%</text>
<text text-anchor="start" x="489" y="-22.8" font-family="Helvetica,sans-Serif" font-size="14.00" fill="#000000">value = [0.71, 0.29]</text>
<text text-anchor="start" x="492" y="-7.8" font-family="Helvetica,sans-Serif" font-size="14.00" fill="#000000">class = Poisonous</text>
</g>
<!-- 7&#45;&gt;9 -->
<g id="edge9" class="edge">
<title>7&#45;&gt;9</title>
<path fill="none" stroke="#000000" d="M485.4916,-103.9815C493.5695,-94.7908 502.1334,-85.0472 510.2226,-75.8436"/>
<polygon fill="#000000" stroke="#000000" points="512.912,-78.0855 516.8848,-68.2637 507.6542,-73.4642 512.912,-78.0855"/>
</g>
</g>
</svg>
