<?xml version="1.0" encoding="UTF-8" standalone="no"?>
<!DOCTYPE svg PUBLIC "-//W3C//DTD SVG 1.1//EN"
 "http://www.w3.org/Graphics/SVG/1.1/DTD/svg11.dtd">
<!-- Generated by graphviz version 2.40.1 (20161225.0304)
 -->
<!-- Title: Tree Pages: 1 -->
<svg width="428pt" height="433pt"
 viewBox="0.00 0.00 428.00 433.00" xmlns="http://www.w3.org/2000/svg" xmlns:xlink="http://www.w3.org/1999/xlink">
<g id="graph0" class="graph" transform="scale(1 1) rotate(0) translate(4 429)">
<title>Tree</title>
<polygon fill="#ffffff" stroke="transparent" points="-4,4 -4,-429 424,-429 424,4 -4,4"/>
<!-- 0 -->
<g id="node1" class="node">
<title>0</title>
<path fill="#f1f8fd" stroke="#000000" d="M333,-425C333,-425 225,-425 225,-425 219,-425 213,-419 213,-413 213,-413 213,-354 213,-354 213,-348 219,-342 225,-342 225,-342 333,-342 333,-342 339,-342 345,-348 345,-354 345,-354 345,-413 345,-413 345,-419 339,-425 333,-425"/>
<text text-anchor="start" x="240.5" y="-409.8" font-family="Helvetica,sans-Serif" font-size="14.00" fill="#000000">odor_n ≤ 0.5</text>
<text text-anchor="start" x="251" y="-394.8" font-family="Helvetica,sans-Serif" font-size="14.00" fill="#000000">gini = 0.5</text>
<text text-anchor="start" x="222" y="-379.8" font-family="Helvetica,sans-Serif" font-size="14.00" fill="#000000">samples = 100.0%</text>
<text text-anchor="start" x="221" y="-364.8" font-family="Helvetica,sans-Serif" font-size="14.00" fill="#000000">value = [0.48, 0.52]</text>
<text text-anchor="start" x="236.5" y="-349.8" font-family="Helvetica,sans-Serif" font-size="14.00" fill="#000000">class = Edible</text>
</g>
<!-- 1 -->
<g id="node2" class="node">
<title>1</title>
<path fill="#ea9a61" stroke="#000000" d="M258,-306C258,-306 150,-306 150,-306 144,-306 138,-300 138,-294 138,-294 138,-235 138,-235 138,-229 144,-223 150,-223 150,-223 258,-223 258,-223 264,-223 270,-229 270,-235 270,-235 270,-294 270,-294 270,-300 264,-306 258,-306"/>
<text text-anchor="start" x="165.5" y="-290.8" font-family="Helvetica,sans-Serif" font-size="14.00" fill="#000000">odor_a ≤ 0.5</text>
<text text-anchor="start" x="172" y="-275.8" font-family="Helvetica,sans-Serif" font-size="14.00" fill="#000000">gini = 0.28</text>
<text text-anchor="start" x="151" y="-260.8" font-family="Helvetica,sans-Serif" font-size="14.00" fill="#000000">samples = 56.1%</text>
<text text-anchor="start" x="146" y="-245.8" font-family="Helvetica,sans-Serif" font-size="14.00" fill="#000000">value = [0.83, 0.17]</text>
<text text-anchor="start" x="149" y="-230.8" font-family="Helvetica,sans-Serif" font-size="14.00" fill="#000000">class = Poisonous</text>
</g>
<!-- 0&#45;&gt;1 -->
<g id="edge1" class="edge">
<title>0&#45;&gt;1</title>
<path fill="none" stroke="#000000" d="M252.7686,-341.8796C247.2627,-333.1434 241.3994,-323.8404 235.7176,-314.8253"/>
<polygon fill="#000000" stroke="#000000" points="238.6363,-312.8919 230.3433,-306.2981 232.7143,-316.6242 238.6363,-312.8919"/>
<text text-anchor="middle" x="225.9196" y="-322.1027" font-family="Helvetica,sans-Serif" font-size="14.00" fill="#000000">True</text>
</g>
<!-- 6 -->
<g id="node7" class="node">
<title>6</title>
<path fill="#40a0e6" stroke="#000000" d="M408,-298.5C408,-298.5 300,-298.5 300,-298.5 294,-298.5 288,-292.5 288,-286.5 288,-286.5 288,-242.5 288,-242.5 288,-236.5 294,-230.5 300,-230.5 300,-230.5 408,-230.5 408,-230.5 414,-230.5 420,-236.5 420,-242.5 420,-242.5 420,-286.5 420,-286.5 420,-292.5 414,-298.5 408,-298.5"/>
<text text-anchor="start" x="322" y="-283.3" font-family="Helvetica,sans-Serif" font-size="14.00" fill="#000000">gini = 0.06</text>
<text text-anchor="start" x="301" y="-268.3" font-family="Helvetica,sans-Serif" font-size="14.00" fill="#000000">samples = 43.9%</text>
<text text-anchor="start" x="296" y="-253.3" font-family="Helvetica,sans-Serif" font-size="14.00" fill="#000000">value = [0.03, 0.97]</text>
<text text-anchor="start" x="311.5" y="-238.3" font-family="Helvetica,sans-Serif" font-size="14.00" fill="#000000">class = Edible</text>
</g>
<!-- 0&#45;&gt;6 -->
<g id="edge6" class="edge">
<title>0&#45;&gt;6</title>
<path fill="none" stroke="#000000" d="M305.2314,-341.8796C312.231,-330.7735 319.808,-318.7513 326.8556,-307.5691"/>
<polygon fill="#000000" stroke="#000000" points="330.002,-309.1411 332.3729,-298.8149 324.08,-305.4087 330.002,-309.1411"/>
<text text-anchor="middle" x="336.7967" y="-314.6196" font-family="Helvetica,sans-Serif" font-size="14.00" fill="#000000">False</text>
</g>
<!-- 2 -->
<g id="node3" class="node">
<title>2</title>
<path fill="#e88d4c" stroke="#000000" d="M187,-187C187,-187 79,-187 79,-187 73,-187 67,-181 67,-175 67,-175 67,-116 67,-116 67,-110 73,-104 79,-104 79,-104 187,-104 187,-104 193,-104 199,-110 199,-116 199,-116 199,-175 199,-175 199,-181 193,-187 187,-187"/>
<text text-anchor="start" x="96.5" y="-171.8" font-family="Helvetica,sans-Serif" font-size="14.00" fill="#000000">odor_l ≤ 0.5</text>
<text text-anchor="start" x="101" y="-156.8" font-family="Helvetica,sans-Serif" font-size="14.00" fill="#000000">gini = 0.16</text>
<text text-anchor="start" x="80" y="-141.8" font-family="Helvetica,sans-Serif" font-size="14.00" fill="#000000">samples = 51.3%</text>
<text text-anchor="start" x="75" y="-126.8" font-family="Helvetica,sans-Serif" font-size="14.00" fill="#000000">value = [0.91, 0.09]</text>
<text text-anchor="start" x="78" y="-111.8" font-family="Helvetica,sans-Serif" font-size="14.00" fill="#000000">class = Poisonous</text>
</g>
<!-- 1&#45;&gt;2 -->
<g id="edge2" class="edge">
<title>1&#45;&gt;2</title>
<path fill="none" stroke="#000000" d="M179.1676,-222.8796C174.0091,-214.2335 168.5192,-205.0322 163.1924,-196.1042"/>
<polygon fill="#000000" stroke="#000000" points="166.0678,-194.0924 157.9383,-187.2981 160.0564,-197.679 166.0678,-194.0924"/>
</g>
<!-- 5 -->
<g id="node6" class="node">
<title>5</title>
<path fill="#399de5" stroke="#000000" d="M322.5,-179.5C322.5,-179.5 229.5,-179.5 229.5,-179.5 223.5,-179.5 217.5,-173.5 217.5,-167.5 217.5,-167.5 217.5,-123.5 217.5,-123.5 217.5,-117.5 223.5,-111.5 229.5,-111.5 229.5,-111.5 322.5,-111.5 322.5,-111.5 328.5,-111.5 334.5,-117.5 334.5,-123.5 334.5,-123.5 334.5,-167.5 334.5,-167.5 334.5,-173.5 328.5,-179.5 322.5,-179.5"/>
<text text-anchor="start" x="248" y="-164.3" font-family="Helvetica,sans-Serif" font-size="14.00" fill="#000000">gini = 0.0</text>
<text text-anchor="start" x="226.5" y="-149.3" font-family="Helvetica,sans-Serif" font-size="14.00" fill="#000000">samples = 4.9%</text>
<text text-anchor="start" x="225.5" y="-134.3" font-family="Helvetica,sans-Serif" font-size="14.00" fill="#000000">value = [0.0, 1.0]</text>
<text text-anchor="start" x="233.5" y="-119.3" font-family="Helvetica,sans-Serif" font-size="14.00" fill="#000000">class = Edible</text>
</g>
<!-- 1&#45;&gt;5 -->
<g id="edge5" class="edge">
<title>1&#45;&gt;5</title>
<path fill="none" stroke="#000000" d="M229.1821,-222.8796C235.9017,-211.7735 243.1757,-199.7513 249.9414,-188.5691"/>
<polygon fill="#000000" stroke="#000000" points="253.0559,-190.1826 255.238,-179.8149 247.0668,-186.5589 253.0559,-190.1826"/>
</g>
<!-- 3 -->
<g id="node4" class="node">
<title>3</title>
<path fill="#e58139" stroke="#000000" d="M114,-68C114,-68 12,-68 12,-68 6,-68 0,-62 0,-56 0,-56 0,-12 0,-12 0,-6 6,0 12,0 12,0 114,0 114,0 120,0 126,-6 126,-12 126,-12 126,-56 126,-56 126,-62 120,-68 114,-68"/>
<text text-anchor="start" x="35" y="-52.8" font-family="Helvetica,sans-Serif" font-size="14.00" fill="#000000">gini = 0.0</text>
<text text-anchor="start" x="10" y="-37.8" font-family="Helvetica,sans-Serif" font-size="14.00" fill="#000000">samples = 46.7%</text>
<text text-anchor="start" x="12.5" y="-22.8" font-family="Helvetica,sans-Serif" font-size="14.00" fill="#000000">value = [1.0, 0.0]</text>
<text text-anchor="start" x="8" y="-7.8" font-family="Helvetica,sans-Serif" font-size="14.00" fill="#000000">class = Poisonous</text>
</g>
<!-- 2&#45;&gt;3 -->
<g id="edge3" class="edge">
<title>2&#45;&gt;3</title>
<path fill="none" stroke="#000000" d="M106.9346,-103.9815C101.3955,-95.1585 95.5364,-85.8258 89.9645,-76.9506"/>
<polygon fill="#000000" stroke="#000000" points="92.7922,-74.872 84.5108,-68.2637 86.8637,-78.594 92.7922,-74.872"/>
</g>
<!-- 4 -->
<g id="node5" class="node">
<title>4</title>
<path fill="#399de5" stroke="#000000" d="M249.5,-68C249.5,-68 156.5,-68 156.5,-68 150.5,-68 144.5,-62 144.5,-56 144.5,-56 144.5,-12 144.5,-12 144.5,-6 150.5,0 156.5,0 156.5,0 249.5,0 249.5,0 255.5,0 261.5,-6 261.5,-12 261.5,-12 261.5,-56 261.5,-56 261.5,-62 255.5,-68 249.5,-68"/>
<text text-anchor="start" x="175" y="-52.8" font-family="Helvetica,sans-Serif" font-size="14.00" fill="#000000">gini = 0.0</text>
<text text-anchor="start" x="153.5" y="-37.8" font-family="Helvetica,sans-Serif" font-size="14.00" fill="#000000">samples = 4.6%</text>
<text text-anchor="start" x="152.5" y="-22.8" font-family="Helvetica,sans-Serif" font-size="14.00" fill="#000000">value = [0.0, 1.0]</text>
<text text-anchor="start" x="160.5" y="-7.8" font-family="Helvetica,sans-Serif" font-size="14.00" fill="#000000">class = Edible</text>
</g>
<!-- 2&#45;&gt;4 -->
<g id="edge4" class="edge">
<title>2&#45;&gt;4</title>
<path fill="none" stroke="#000000" d="M159.0654,-103.9815C164.6045,-95.1585 170.4636,-85.8258 176.0355,-76.9506"/>
<polygon fill="#000000" stroke="#000000" points="179.1363,-78.594 181.4892,-68.2637 173.2078,-74.872 179.1363,-78.594"/>
</g>
</g>
</svg>
